<svg width="16" height="16" viewBox="0 0 16 16" fill="none" xmlns="http://www.w3.org/2000/svg">
<g clip-path="url(#clip0_37_724)">
<path d="M2 16H14C14.5523 16 15 15.5523 15 15V7.07107C15 7.02375 14.9967 6.97641 14.9896 6.92963C14.4633 3.48334 11.5168 0.536771 8.0705 0.0104199C8.02364 0.00326225 7.97621 6.37967e-06 7.9288 1.90907e-05L1.99973 0.00160878C1.44755 0.00175683 1 0.449429 1 1.00161V15C1 15.5523 1.44772 16 2 16Z" fill="white"/>
<path d="M7.92871 0.25C7.96468 0.24999 8 0.252742 8.0332 0.257812C11.3712 0.767855 14.2324 3.62972 14.7422 6.96777C14.7472 7.0008 14.75 7.03551 14.75 7.07129V15C14.75 15.4142 14.4142 15.75 14 15.75H2C1.58579 15.75 1.25 15.4142 1.25 15V1.00195L1.25391 0.924805C1.29236 0.546746 1.6118 0.252057 2 0.251953L7.92871 0.25Z" stroke="black" stroke-opacity="0.25" stroke-width="0.5"/>
<path d="M11.6032 4.7485H4.41376C4.0444 4.7485 3.74498 5.01589 3.74498 5.34572V10.6543C3.74498 10.9841 4.0444 11.2515 4.41376 11.2515H11.6032C11.9725 11.2515 12.2719 10.9841 12.2719 10.6543V5.34572C12.2719 5.01589 11.9725 4.7485 11.6032 4.7485Z" fill="url(#paint0_linear_37_724)"/>
<path d="M11.6032 4.7485H4.41376C4.0444 4.7485 3.74498 5.01589 3.74498 5.34572V10.6543C3.74498 10.9841 4.0444 11.2515 4.41376 11.2515H11.6032C11.9725 11.2515 12.2719 10.9841 12.2719 10.6543V5.34572C12.2719 5.01589 11.9725 4.7485 11.6032 4.7485Z" fill="#B7BDC7"/>
<mask id="mask0_37_724" style="mask-type:luminance" maskUnits="userSpaceOnUse" x="4" y="5" width="8" height="6">
<path d="M11.0273 5.27936H4.98965C4.68185 5.27936 4.43233 5.50218 4.43233 5.77704V10.2395C4.43233 10.5144 4.68185 10.7372 4.98965 10.7372H11.0273C11.3351 10.7372 11.5846 10.5144 11.5846 10.2395V5.77704C11.5846 5.50218 11.3351 5.27936 11.0273 5.27936Z" fill="white"/>
</mask>
<g mask="url(#mask0_37_724)">
<path d="M11.5846 5.27936H4.43233V10.7372H11.5846V5.27936Z" fill="url(#paint1_linear_37_724)"/>
<path d="M6.28635 7.08758C6.70187 7.08758 7.03872 6.78678 7.03872 6.41572C7.03872 6.04465 6.70187 5.74385 6.28635 5.74385C5.87082 5.74385 5.53397 6.04465 5.53397 6.41572C5.53397 6.78678 5.87082 7.08758 6.28635 7.08758Z" fill="url(#paint2_linear_37_724)"/>
<path d="M4.43233 9.5262L5.32404 8.56402C5.62128 8.23224 6.06713 8.24883 6.38295 8.56402L7.57189 9.77504V10.7372H4.43233V9.5262Z" fill="url(#paint3_linear_37_724)"/>
<path d="M5.52839 10.7372L8.76083 7.23689C9.05807 6.90511 9.5225 6.90511 9.83831 7.23689L11.5846 9.09489V10.7372H5.52839Z" fill="url(#paint4_linear_37_724)"/>
</g>
<path d="M15 7.5C14.5 3 12 0.5 7.5 0C9 1 9.5 1.5 9.5 5.5C13.5 5.5 14 6 15 7.5Z" fill="white"/>
<path d="M8.46289 0.398438C10.1947 0.73321 11.5595 1.41305 12.5732 2.42676C13.5867 3.44025 14.2657 4.80491 14.6006 6.53613C14.2986 6.18816 13.9573 5.90979 13.4707 5.70703C12.7028 5.38716 11.5953 5.26197 9.74707 5.25195C9.73702 3.40435 9.61278 2.29704 9.29297 1.5293C9.09001 1.0422 8.81135 0.700601 8.46289 0.398438Z" stroke="black" stroke-opacity="0.25" stroke-width="0.5"/>
</g>
<defs>
<linearGradient id="paint0_linear_37_724" x1="4.28372" y1="4.86463" x2="11.0183" y2="11.9976" gradientUnits="userSpaceOnUse">
<stop stop-color="white"/>
<stop offset="0.5" stop-color="#F7F9FE"/>
<stop offset="1" stop-color="#B9BFC8"/>
</linearGradient>
<linearGradient id="paint1_linear_37_724" x1="4.76673" y1="5.3623" x2="10.7039" y2="11.3573" gradientUnits="userSpaceOnUse">
<stop stop-color="#EEFBFD"/>
<stop offset="1" stop-color="#4ABFE7"/>
</linearGradient>
<linearGradient id="paint2_linear_37_724" x1="5.71417" y1="5.99269" x2="6.83155" y2="6.97855" gradientUnits="userSpaceOnUse">
<stop stop-color="#FDFEEC"/>
<stop offset="1" stop-color="#E0E04F"/>
</linearGradient>
<linearGradient id="paint3_linear_37_724" x1="5.15685" y1="8.81286" x2="6.36603" y2="10.2767" gradientUnits="userSpaceOnUse">
<stop stop-color="#58C73D"/>
<stop offset="1" stop-color="#478738"/>
</linearGradient>
<linearGradient id="paint4_linear_37_724" x1="7.86912" y1="7.60185" x2="10.8948" y2="11.0637" gradientUnits="userSpaceOnUse">
<stop stop-color="#58C73D"/>
<stop offset="1" stop-color="#478738"/>
</linearGradient>
<clipPath id="clip0_37_724">
<rect width="16" height="16" fill="white"/>
</clipPath>
</defs>
</svg>
